
<svg xmlns="http://www.w3.org/2000/svg" xmlns:xlink="http://www.w3.org/1999/xlink" width="500" zoomAndPan="magnify" viewBox="0 0 375 374.999991" height="500" preserveAspectRatio="xMidYMid meet" version="1.0"><defs><g/><clipPath id="a0d33bba83"><path d="M 37.5 37.5 L 337.5 37.5 L 337.5 337.5 L 37.5 337.5 Z M 37.5 37.5 " clip-rule="nonzero"/></clipPath><clipPath id="8a82661037"><path d="M 187.5 37.5 C 104.65625 37.5 37.5 104.65625 37.5 187.5 C 37.5 270.34375 104.65625 337.5 187.5 337.5 C 270.34375 337.5 337.5 270.34375 337.5 187.5 C 337.5 104.65625 270.34375 37.5 187.5 37.5 Z M 187.5 37.5 " clip-rule="nonzero"/></clipPath></defs><rect x="-37.5" width="450" fill="#ffffff" y="-37.499999" height="449.999989" fill-opacity="1"/><rect x="-37.5" width="450" fill="#ffffff" y="-37.499999" height="449.999989" fill-opacity="1"/><g clip-path="url(#a0d33bba83)"><g clip-path="url(#8a82661037)"><path fill="#004aad" d="M 37.5 37.5 L 337.5 37.5 L 337.5 337.5 L 37.5 337.5 Z M 37.5 37.5 " fill-opacity="1" fill-rule="nonzero"/></g></g><g fill="#f6c700" fill-opacity="1"><g transform="translate(45.228261, 214.909692)"><g><path d="M 92.53125 -44.890625 C 92.53125 -34.359375 90.660156 -25.53125 86.921875 -18.40625 C 83.191406 -11.28125 77.710938 -6.0625 70.484375 -2.75 L 92.046875 21.3125 L 67.734375 21.3125 L 51.3125 1.21875 L 49.90625 1.21875 C 36.1875 1.21875 25.648438 -2.757812 18.296875 -10.71875 C 10.953125 -18.675781 7.28125 -30.109375 7.28125 -45.015625 C 7.28125 -59.910156 10.960938 -71.285156 18.328125 -79.140625 C 25.703125 -87.003906 36.269531 -90.9375 50.03125 -90.9375 C 63.789062 -90.9375 74.3125 -86.976562 81.59375 -79.0625 C 88.882812 -71.144531 92.53125 -59.753906 92.53125 -44.890625 Z M 27.1875 -44.890625 C 27.1875 -34.890625 29.082031 -27.359375 32.875 -22.296875 C 36.675781 -17.234375 42.351562 -14.703125 49.90625 -14.703125 C 65.050781 -14.703125 72.625 -24.765625 72.625 -44.890625 C 72.625 -65.054688 65.09375 -75.140625 50.03125 -75.140625 C 42.476562 -75.140625 36.78125 -72.597656 32.9375 -67.515625 C 29.101562 -62.429688 27.1875 -54.890625 27.1875 -44.890625 Z M 27.1875 -44.890625 "/></g></g></g><g fill="#f6c700" fill-opacity="1"><g transform="translate(145.049098, 214.909692)"><g><path d="M 30.25 -49.78125 L 36.375 -49.78125 C 42.375 -49.78125 46.800781 -50.78125 49.65625 -52.78125 C 52.519531 -54.789062 53.953125 -57.9375 53.953125 -62.21875 C 53.953125 -66.46875 52.492188 -69.488281 49.578125 -71.28125 C 46.660156 -73.082031 42.140625 -73.984375 36.015625 -73.984375 L 30.25 -73.984375 Z M 30.25 -34.359375 L 30.25 0 L 11.265625 0 L 11.265625 -89.53125 L 37.359375 -89.53125 C 49.523438 -89.53125 58.523438 -87.316406 64.359375 -82.890625 C 70.203125 -78.460938 73.125 -71.738281 73.125 -62.71875 C 73.125 -57.445312 71.671875 -52.757812 68.765625 -48.65625 C 65.867188 -44.550781 61.769531 -41.335938 56.46875 -39.015625 C 69.9375 -18.878906 78.710938 -5.875 82.796875 0 L 61.734375 0 L 40.359375 -34.359375 Z M 30.25 -34.359375 "/></g></g></g><g fill="#ffffff" fill-opacity="1"><g transform="translate(160.755164, 253.317862)"><g><path d="M 8.0625 0.859375 C 5.789062 0.367188 4.238281 -0.769531 3.40625 -2.5625 C 2.582031 -4.363281 2.171875 -6.757812 2.171875 -9.75 C 2.171875 -10.601562 2.191406 -11.582031 2.234375 -12.6875 C 2.285156 -13.800781 2.351562 -14.957031 2.4375 -16.15625 C 2.519531 -17.363281 2.613281 -18.539062 2.71875 -19.6875 C 2.820312 -20.84375 2.925781 -21.898438 3.03125 -22.859375 C 3.144531 -23.828125 3.242188 -24.609375 3.328125 -25.203125 C 3.671875 -27.523438 4.179688 -29.207031 4.859375 -30.25 C 5.546875 -31.300781 6.476562 -31.828125 7.65625 -31.828125 C 8.40625 -31.828125 8.960938 -31.664062 9.328125 -31.34375 C 9.691406 -31.019531 9.9375 -30.5625 10.0625 -29.96875 C 10.1875 -29.375 10.25 -28.664062 10.25 -27.84375 C 10.25 -27.300781 10.226562 -26.664062 10.1875 -25.9375 C 10.15625 -25.21875 10.117188 -24.445312 10.078125 -23.625 C 10.046875 -22.800781 10.007812 -21.941406 9.96875 -21.046875 C 9.9375 -20.148438 9.90625 -19.253906 9.875 -18.359375 C 9.84375 -17.472656 9.820312 -16.601562 9.8125 -15.75 C 9.800781 -14.90625 9.804688 -14.109375 9.828125 -13.359375 C 9.859375 -11.878906 9.945312 -10.640625 10.09375 -9.640625 C 10.25 -8.640625 10.539062 -7.851562 10.96875 -7.28125 C 11.40625 -6.71875 12.046875 -6.3125 12.890625 -6.0625 C 13.742188 -5.8125 14.882812 -5.675781 16.3125 -5.65625 C 17.550781 -5.601562 18.722656 -5.554688 19.828125 -5.515625 C 20.941406 -5.472656 21.859375 -5.425781 22.578125 -5.375 C 23.628906 -5.4375 24.484375 -5.460938 25.140625 -5.453125 C 25.804688 -5.453125 26.304688 -5.390625 26.640625 -5.265625 C 26.921875 -5.128906 27.125 -4.929688 27.25 -4.671875 C 27.382812 -4.421875 27.453125 -4.066406 27.453125 -3.609375 C 27.453125 -2.878906 27.222656 -2.257812 26.765625 -1.75 C 26.316406 -1.25 25.6875 -0.820312 24.875 -0.46875 C 24.0625 -0.125 23.125 0.179688 22.0625 0.453125 C 20.9375 0.710938 19.640625 0.921875 18.171875 1.078125 C 16.710938 1.234375 15.257812 1.3125 13.8125 1.3125 C 13.226562 1.3125 12.582031 1.296875 11.875 1.265625 C 11.164062 1.242188 10.472656 1.195312 9.796875 1.125 C 9.128906 1.050781 8.550781 0.960938 8.0625 0.859375 Z M 8.0625 0.859375 "/></g></g></g><g fill="#ffffff" fill-opacity="1"><g transform="translate(189.562734, 253.317862)"><g><path d="M 15.90625 1.8125 C 12.96875 1.8125 10.425781 1.363281 8.28125 0.46875 C 6.132812 -0.414062 4.472656 -1.785156 3.296875 -3.640625 C 2.128906 -5.503906 1.546875 -7.878906 1.546875 -10.765625 C 1.546875 -13.160156 1.941406 -15.25 2.734375 -17.03125 C 3.523438 -18.820312 4.617188 -20.320312 6.015625 -21.53125 C 7.421875 -22.738281 9.039062 -23.640625 10.875 -24.234375 C 12.707031 -24.835938 14.660156 -25.140625 16.734375 -25.140625 C 18.148438 -25.140625 19.488281 -24.988281 20.75 -24.6875 C 22.019531 -24.394531 23.148438 -23.9375 24.140625 -23.3125 C 25.128906 -22.695312 25.898438 -21.910156 26.453125 -20.953125 C 27.015625 -19.992188 27.296875 -18.851562 27.296875 -17.53125 C 27.296875 -16.113281 27 -14.960938 26.40625 -14.078125 C 25.8125 -13.191406 25 -12.5 23.96875 -12 C 22.9375 -11.507812 21.769531 -11.144531 20.46875 -10.90625 C 19.164062 -10.675781 17.804688 -10.5 16.390625 -10.375 C 15.679688 -10.25 14.835938 -10.144531 13.859375 -10.0625 C 12.878906 -9.988281 11.929688 -9.929688 11.015625 -9.890625 C 10.097656 -9.847656 9.382812 -9.828125 8.875 -9.828125 C 8.351562 -9.828125 7.992188 -9.753906 7.796875 -9.609375 C 7.609375 -9.472656 7.515625 -9.222656 7.515625 -8.859375 C 7.515625 -8.421875 7.632812 -7.90625 7.875 -7.3125 C 8.125 -6.726562 8.476562 -6.160156 8.9375 -5.609375 C 9.769531 -4.578125 10.738281 -3.890625 11.84375 -3.546875 C 12.957031 -3.203125 14.328125 -3.03125 15.953125 -3.03125 C 17.367188 -3.03125 18.660156 -3.203125 19.828125 -3.546875 C 20.992188 -3.890625 22.046875 -4.226562 22.984375 -4.5625 C 23.921875 -4.90625 24.765625 -5.078125 25.515625 -5.078125 C 26.191406 -5.078125 26.726562 -4.953125 27.125 -4.703125 C 27.519531 -4.453125 27.71875 -3.957031 27.71875 -3.21875 C 27.71875 -2.5625 27.414062 -1.925781 26.8125 -1.3125 C 26.207031 -0.695312 25.375 -0.160156 24.3125 0.296875 C 23.25 0.765625 22 1.132812 20.5625 1.40625 C 19.132812 1.675781 17.582031 1.8125 15.90625 1.8125 Z M 13.828125 -12.75 C 15.242188 -12.75 16.5625 -12.882812 17.78125 -13.15625 C 19.007812 -13.425781 20.003906 -13.890625 20.765625 -14.546875 C 21.523438 -15.203125 21.90625 -16.109375 21.90625 -17.265625 C 21.90625 -18.628906 21.40625 -19.65625 20.40625 -20.34375 C 19.40625 -21.03125 18.007812 -21.375 16.21875 -21.375 C 15.144531 -21.375 14.101562 -21.1875 13.09375 -20.8125 C 12.082031 -20.4375 11.179688 -19.914062 10.390625 -19.25 C 9.609375 -18.59375 8.984375 -17.84375 8.515625 -17 C 8.046875 -16.164062 7.8125 -15.265625 7.8125 -14.296875 C 7.8125 -13.804688 8.003906 -13.453125 8.390625 -13.234375 C 8.785156 -13.023438 9.421875 -12.890625 10.296875 -12.828125 C 11.179688 -12.773438 12.359375 -12.75 13.828125 -12.75 Z M 13.828125 -12.75 "/></g></g></g><g fill="#ffffff" fill-opacity="1"><g transform="translate(219.574988, 253.317862)"><g><path d="M 6.078125 0.703125 C 5.253906 0.703125 4.601562 0.539062 4.125 0.21875 C 3.644531 -0.101562 3.304688 -0.617188 3.109375 -1.328125 C 2.921875 -2.035156 2.828125 -2.929688 2.828125 -4.015625 C 2.828125 -4.609375 2.835938 -5.320312 2.859375 -6.15625 C 2.890625 -6.988281 2.929688 -7.898438 2.984375 -8.890625 C 3.035156 -9.878906 3.097656 -10.878906 3.171875 -11.890625 C 3.242188 -12.898438 3.320312 -13.875 3.40625 -14.8125 C 3.488281 -15.75 3.570312 -16.59375 3.65625 -17.34375 C 3.75 -18.09375 3.835938 -18.695312 3.921875 -19.15625 C 4.273438 -20.25 4.796875 -21.066406 5.484375 -21.609375 C 6.171875 -22.148438 7.039062 -22.421875 8.09375 -22.421875 C 9.09375 -22.421875 9.816406 -22.046875 10.265625 -21.296875 C 10.722656 -20.546875 10.953125 -19.460938 10.953125 -18.046875 C 10.953125 -17.523438 10.929688 -16.816406 10.890625 -15.921875 C 10.859375 -15.035156 10.804688 -14.050781 10.734375 -12.96875 C 10.671875 -11.882812 10.597656 -10.773438 10.515625 -9.640625 C 10.441406 -8.503906 10.347656 -7.414062 10.234375 -6.375 C 10.117188 -5.332031 10.007812 -4.414062 9.90625 -3.625 C 9.800781 -2.832031 9.675781 -2.234375 9.53125 -1.828125 C 9.1875 -0.890625 8.726562 -0.234375 8.15625 0.140625 C 7.59375 0.515625 6.898438 0.703125 6.078125 0.703125 Z M 7.859375 -26.484375 C 6.210938 -26.484375 5.082031 -26.757812 4.46875 -27.3125 C 3.863281 -27.875 3.5625 -28.503906 3.5625 -29.203125 C 3.5625 -30.097656 3.882812 -30.84375 4.53125 -31.4375 C 5.175781 -32.039062 5.96875 -32.5 6.90625 -32.8125 C 7.851562 -33.132812 8.800781 -33.296875 9.75 -33.296875 C 10.425781 -33.296875 11.050781 -33.179688 11.625 -32.953125 C 12.207031 -32.722656 12.664062 -32.375 13 -31.90625 C 13.34375 -31.4375 13.515625 -30.816406 13.515625 -30.046875 C 13.515625 -29.203125 13.25 -28.519531 12.71875 -28 C 12.195312 -27.476562 11.507812 -27.09375 10.65625 -26.84375 C 9.800781 -26.601562 8.867188 -26.484375 7.859375 -26.484375 Z M 7.859375 -26.484375 "/></g></g></g><g fill="#ffffff" fill-opacity="1"><g transform="translate(235.60247, 253.317862)"><g><path d="M 16.34375 0.546875 C 15.40625 0.546875 14.457031 0.40625 13.5 0.125 C 12.550781 -0.144531 11.738281 -0.671875 11.0625 -1.453125 C 10.394531 -2.234375 10 -3.335938 9.875 -4.765625 C 9.820312 -5.273438 9.769531 -5.851562 9.71875 -6.5 C 9.664062 -7.144531 9.617188 -7.835938 9.578125 -8.578125 C 9.535156 -9.316406 9.5 -10.082031 9.46875 -10.875 C 9.445312 -11.675781 9.421875 -12.488281 9.390625 -13.3125 C 9.367188 -14.144531 9.359375 -14.972656 9.359375 -15.796875 C 9.335938 -16.578125 9.191406 -17.085938 8.921875 -17.328125 C 8.648438 -17.578125 8.234375 -17.726562 7.671875 -17.78125 C 7.335938 -17.820312 6.910156 -17.847656 6.390625 -17.859375 C 5.878906 -17.878906 5.351562 -17.90625 4.8125 -17.9375 C 4.28125 -17.976562 3.800781 -18.015625 3.375 -18.046875 C 2.695312 -18.117188 2.179688 -18.34375 1.828125 -18.71875 C 1.484375 -19.09375 1.3125 -19.628906 1.3125 -20.328125 C 1.3125 -20.796875 1.410156 -21.15625 1.609375 -21.40625 C 1.804688 -21.664062 2.09375 -21.863281 2.46875 -22 C 2.84375 -22.144531 3.269531 -22.242188 3.75 -22.296875 C 4.675781 -22.378906 5.4375 -22.453125 6.03125 -22.515625 C 6.632812 -22.585938 7.203125 -22.65625 7.734375 -22.71875 C 8.285156 -22.78125 8.675781 -22.925781 8.90625 -23.15625 C 9.144531 -23.382812 9.300781 -23.800781 9.375 -24.40625 C 9.414062 -24.78125 9.445312 -25.210938 9.46875 -25.703125 C 9.5 -26.191406 9.535156 -26.675781 9.578125 -27.15625 C 9.617188 -27.632812 9.664062 -28.046875 9.71875 -28.390625 C 9.90625 -29.242188 10.171875 -29.875 10.515625 -30.28125 C 10.867188 -30.6875 11.429688 -30.890625 12.203125 -30.890625 C 12.835938 -30.890625 13.332031 -30.785156 13.6875 -30.578125 C 14.039062 -30.378906 14.304688 -30.070312 14.484375 -29.65625 C 14.660156 -29.238281 14.800781 -28.695312 14.90625 -28.03125 C 14.9375 -27.488281 14.960938 -27.003906 14.984375 -26.578125 C 15.015625 -26.160156 15.039062 -25.78125 15.0625 -25.4375 C 15.082031 -25.101562 15.101562 -24.796875 15.125 -24.515625 C 15.15625 -24.234375 15.1875 -23.957031 15.21875 -23.6875 C 15.269531 -23.175781 15.4375 -22.8125 15.71875 -22.59375 C 16 -22.375 16.410156 -22.238281 16.953125 -22.1875 C 17.421875 -22.132812 17.9375 -22.078125 18.5 -22.015625 C 19.070312 -21.953125 19.625 -21.898438 20.15625 -21.859375 C 20.6875 -21.816406 21.128906 -21.757812 21.484375 -21.6875 C 22.191406 -21.601562 22.800781 -21.410156 23.3125 -21.109375 C 23.820312 -20.816406 24.078125 -20.328125 24.078125 -19.640625 C 24.078125 -19.015625 23.875 -18.519531 23.46875 -18.15625 C 23.070312 -17.800781 22.523438 -17.597656 21.828125 -17.546875 C 20.753906 -17.535156 19.765625 -17.53125 18.859375 -17.53125 C 17.953125 -17.539062 17.242188 -17.539062 16.734375 -17.53125 C 16.335938 -17.488281 16.03125 -17.367188 15.8125 -17.171875 C 15.59375 -16.972656 15.460938 -16.460938 15.421875 -15.640625 C 15.421875 -14.972656 15.425781 -14.289062 15.4375 -13.59375 C 15.445312 -12.894531 15.457031 -12.195312 15.46875 -11.5 C 15.488281 -10.800781 15.515625 -10.113281 15.546875 -9.4375 C 15.585938 -8.769531 15.632812 -8.140625 15.6875 -7.546875 C 15.738281 -6.953125 15.800781 -6.410156 15.875 -5.921875 C 16.007812 -4.890625 16.265625 -4.195312 16.640625 -3.84375 C 17.015625 -3.5 17.519531 -3.328125 18.15625 -3.328125 C 18.90625 -3.328125 19.492188 -3.476562 19.921875 -3.78125 C 20.347656 -4.09375 20.710938 -4.40625 21.015625 -4.71875 C 21.328125 -5.03125 21.675781 -5.1875 22.0625 -5.1875 C 22.5 -5.1875 22.816406 -5.066406 23.015625 -4.828125 C 23.210938 -4.597656 23.3125 -4.253906 23.3125 -3.796875 C 23.3125 -3.222656 23.101562 -2.675781 22.6875 -2.15625 C 22.28125 -1.644531 21.738281 -1.179688 21.0625 -0.765625 C 20.394531 -0.359375 19.648438 -0.0390625 18.828125 0.1875 C 18.015625 0.425781 17.1875 0.546875 16.34375 0.546875 Z M 16.34375 0.546875 "/></g></g></g><g fill="#ffffff" fill-opacity="1"><g transform="translate(262.053069, 253.317862)"><g><path d="M 16.53125 1.390625 C 14.5 1.390625 12.546875 1.160156 10.671875 0.703125 C 8.796875 0.253906 7.117188 -0.460938 5.640625 -1.453125 C 4.171875 -2.453125 3.003906 -3.75 2.140625 -5.34375 C 1.285156 -6.945312 0.859375 -8.90625 0.859375 -11.21875 C 0.859375 -13.75 1.273438 -15.957031 2.109375 -17.84375 C 2.941406 -19.738281 4.085938 -21.320312 5.546875 -22.59375 C 7.015625 -23.863281 8.710938 -24.816406 10.640625 -25.453125 C 12.578125 -26.085938 14.644531 -26.40625 16.84375 -26.40625 C 18.832031 -26.40625 20.78125 -26.148438 22.6875 -25.640625 C 24.59375 -25.140625 26.300781 -24.347656 27.8125 -23.265625 C 29.332031 -22.179688 30.539062 -20.78125 31.4375 -19.0625 C 32.34375 -17.34375 32.796875 -15.265625 32.796875 -12.828125 C 32.796875 -10.992188 32.421875 -9.226562 31.671875 -7.53125 C 30.929688 -5.84375 29.859375 -4.332031 28.453125 -3 C 27.054688 -1.664062 25.359375 -0.601562 23.359375 0.1875 C 21.359375 0.988281 19.082031 1.390625 16.53125 1.390625 Z M 16.296875 -4.40625 C 18.078125 -4.40625 19.585938 -4.675781 20.828125 -5.21875 C 22.066406 -5.769531 23.070312 -6.492188 23.84375 -7.390625 C 24.625 -8.296875 25.191406 -9.28125 25.546875 -10.34375 C 25.910156 -11.40625 26.09375 -12.460938 26.09375 -13.515625 C 26.09375 -14.984375 25.804688 -16.226562 25.234375 -17.25 C 24.671875 -18.269531 23.921875 -19.09375 22.984375 -19.71875 C 22.046875 -20.351562 21 -20.8125 19.84375 -21.09375 C 18.695312 -21.382812 17.519531 -21.53125 16.3125 -21.53125 C 14.75 -21.53125 13.265625 -21.191406 11.859375 -20.515625 C 10.460938 -19.847656 9.332031 -18.835938 8.46875 -17.484375 C 7.601562 -16.128906 7.171875 -14.421875 7.171875 -12.359375 C 7.171875 -10.679688 7.515625 -9.242188 8.203125 -8.046875 C 8.898438 -6.859375 9.925781 -5.953125 11.28125 -5.328125 C 12.644531 -4.710938 14.316406 -4.40625 16.296875 -4.40625 Z M 16.296875 -4.40625 "/></g></g></g><g fill="#ffffff" fill-opacity="1"><g transform="translate(297.119737, 253.317862)"><g><path d="M 7.25 0.6875 C 6.75 0.6875 6.296875 0.582031 5.890625 0.375 C 5.492188 0.175781 5.132812 -0.09375 4.8125 -0.4375 C 4.488281 -0.789062 4.191406 -1.203125 3.921875 -1.671875 C 3.609375 -2.335938 3.320312 -3.109375 3.0625 -3.984375 C 2.800781 -4.859375 2.578125 -5.769531 2.390625 -6.71875 C 2.210938 -7.664062 2.078125 -8.609375 1.984375 -9.546875 C 1.898438 -10.492188 1.859375 -11.375 1.859375 -12.1875 C 1.859375 -15.03125 2.390625 -17.4375 3.453125 -19.40625 C 4.523438 -21.382812 6.0625 -22.890625 8.0625 -23.921875 C 10.070312 -24.953125 12.484375 -25.46875 15.296875 -25.46875 C 16.484375 -25.46875 17.625 -25.378906 18.71875 -25.203125 C 19.8125 -25.023438 20.785156 -24.765625 21.640625 -24.421875 C 22.492188 -24.085938 23.164062 -23.671875 23.65625 -23.171875 C 24.15625 -22.671875 24.40625 -22.097656 24.40625 -21.453125 C 24.40625 -20.929688 24.289062 -20.507812 24.0625 -20.1875 C 23.84375 -19.863281 23.550781 -19.628906 23.1875 -19.484375 C 22.832031 -19.347656 22.460938 -19.28125 22.078125 -19.28125 C 21.273438 -19.28125 20.394531 -19.414062 19.4375 -19.6875 C 18.488281 -19.957031 17.257812 -20.09375 15.75 -20.09375 C 13.457031 -20.09375 11.738281 -19.382812 10.59375 -17.96875 C 9.445312 -16.550781 8.875 -14.628906 8.875 -12.203125 C 8.875 -11.328125 8.914062 -10.484375 9 -9.671875 C 9.09375 -8.867188 9.203125 -8.09375 9.328125 -7.34375 C 9.453125 -6.601562 9.570312 -5.914062 9.6875 -5.28125 C 9.8125 -4.65625 9.910156 -4.097656 9.984375 -3.609375 C 10.066406 -3.117188 10.109375 -2.71875 10.109375 -2.40625 C 10.109375 -1.320312 9.867188 -0.535156 9.390625 -0.046875 C 8.910156 0.441406 8.195312 0.6875 7.25 0.6875 Z M 7.25 0.6875 "/></g></g></g><g fill="#ffffff" fill-opacity="1"><g transform="translate(144.045698, 297.852529)"><g><path d="M 4.78125 0 L 2.796875 0 L 2.796875 -7.703125 L 0.265625 -7.703125 L 0.265625 -9.359375 L 7.328125 -9.359375 L 7.328125 -7.703125 L 4.78125 -7.703125 Z M 4.78125 0 "/></g></g></g><g fill="#ffffff" fill-opacity="1"><g transform="translate(151.635438, 297.852529)"><g><path d="M 0.9375 -9 C 0.9375 -9.632812 1.289062 -9.953125 2 -9.953125 C 2.707031 -9.953125 3.0625 -9.632812 3.0625 -9 C 3.0625 -8.695312 2.972656 -8.460938 2.796875 -8.296875 C 2.617188 -8.128906 2.351562 -8.046875 2 -8.046875 C 1.289062 -8.046875 0.9375 -8.363281 0.9375 -9 Z M 2.96875 0 L 1.03125 0 L 1.03125 -7.15625 L 2.96875 -7.15625 Z M 2.96875 0 "/></g></g></g><g fill="#ffffff" fill-opacity="1"><g transform="translate(155.635093, 297.852529)"><g><path d="M 5.5625 0 L 5.1875 -0.96875 L 5.140625 -0.96875 C 4.804688 -0.5625 4.46875 -0.273438 4.125 -0.109375 C 3.78125 0.046875 3.328125 0.125 2.765625 0.125 C 2.078125 0.125 1.535156 -0.0664062 1.140625 -0.453125 C 0.742188 -0.847656 0.546875 -1.410156 0.546875 -2.140625 C 0.546875 -2.898438 0.8125 -3.457031 1.34375 -3.8125 C 1.875 -4.175781 2.675781 -4.378906 3.75 -4.421875 L 5 -4.453125 L 5 -4.765625 C 5 -5.492188 4.625 -5.859375 3.875 -5.859375 C 3.300781 -5.859375 2.628906 -5.6875 1.859375 -5.34375 L 1.21875 -6.65625 C 2.039062 -7.082031 2.953125 -7.296875 3.953125 -7.296875 C 4.910156 -7.296875 5.644531 -7.085938 6.15625 -6.671875 C 6.675781 -6.253906 6.9375 -5.617188 6.9375 -4.765625 L 6.9375 0 Z M 5 -3.3125 L 4.234375 -3.296875 C 3.671875 -3.273438 3.25 -3.171875 2.96875 -2.984375 C 2.6875 -2.796875 2.546875 -2.507812 2.546875 -2.125 C 2.546875 -1.570312 2.863281 -1.296875 3.5 -1.296875 C 3.957031 -1.296875 4.320312 -1.425781 4.59375 -1.6875 C 4.863281 -1.945312 5 -2.296875 5 -2.734375 Z M 5 -3.3125 "/></g></g></g><g fill="#ffffff" fill-opacity="1"><g transform="translate(163.551208, 297.852529)"><g><path d="M 7.25 -7.15625 L 7.25 -6.171875 L 6.125 -5.875 C 6.332031 -5.550781 6.4375 -5.191406 6.4375 -4.796875 C 6.4375 -4.035156 6.164062 -3.4375 5.625 -3 C 5.09375 -2.570312 4.351562 -2.359375 3.40625 -2.359375 L 3.046875 -2.375 L 2.765625 -2.40625 C 2.566406 -2.257812 2.46875 -2.09375 2.46875 -1.90625 C 2.46875 -1.625 2.828125 -1.484375 3.546875 -1.484375 L 4.75 -1.484375 C 5.539062 -1.484375 6.140625 -1.3125 6.546875 -0.96875 C 6.960938 -0.632812 7.171875 -0.140625 7.171875 0.515625 C 7.171875 1.347656 6.820312 1.992188 6.125 2.453125 C 5.425781 2.921875 4.425781 3.15625 3.125 3.15625 C 2.125 3.15625 1.359375 2.976562 0.828125 2.625 C 0.296875 2.28125 0.03125 1.796875 0.03125 1.171875 C 0.03125 0.734375 0.164062 0.367188 0.4375 0.078125 C 0.707031 -0.210938 1.101562 -0.414062 1.625 -0.53125 C 1.425781 -0.625 1.25 -0.765625 1.09375 -0.953125 C 0.945312 -1.148438 0.875 -1.359375 0.875 -1.578125 C 0.875 -1.847656 0.953125 -2.070312 1.109375 -2.25 C 1.265625 -2.4375 1.492188 -2.617188 1.796875 -2.796875 C 1.421875 -2.953125 1.125 -3.207031 0.90625 -3.5625 C 0.6875 -3.925781 0.578125 -4.351562 0.578125 -4.84375 C 0.578125 -5.625 0.828125 -6.226562 1.328125 -6.65625 C 1.835938 -7.082031 2.566406 -7.296875 3.515625 -7.296875 C 3.710938 -7.296875 3.945312 -7.273438 4.21875 -7.234375 C 4.5 -7.203125 4.675781 -7.175781 4.75 -7.15625 Z M 1.734375 1.015625 C 1.734375 1.285156 1.859375 1.492188 2.109375 1.640625 C 2.367188 1.796875 2.734375 1.875 3.203125 1.875 C 3.898438 1.875 4.445312 1.773438 4.84375 1.578125 C 5.238281 1.390625 5.4375 1.128906 5.4375 0.796875 C 5.4375 0.523438 5.316406 0.335938 5.078125 0.234375 C 4.847656 0.140625 4.488281 0.09375 4 0.09375 L 2.984375 0.09375 C 2.628906 0.09375 2.332031 0.175781 2.09375 0.34375 C 1.851562 0.507812 1.734375 0.734375 1.734375 1.015625 Z M 2.4375 -4.8125 C 2.4375 -4.425781 2.523438 -4.117188 2.703125 -3.890625 C 2.878906 -3.660156 3.148438 -3.546875 3.515625 -3.546875 C 3.878906 -3.546875 4.144531 -3.660156 4.3125 -3.890625 C 4.488281 -4.117188 4.578125 -4.425781 4.578125 -4.8125 C 4.578125 -5.675781 4.222656 -6.109375 3.515625 -6.109375 C 2.796875 -6.109375 2.4375 -5.675781 2.4375 -4.8125 Z M 2.4375 -4.8125 "/></g></g></g><g fill="#ffffff" fill-opacity="1"><g transform="translate(170.955367, 297.852529)"><g><path d="M 2.578125 -3.59375 C 2.578125 -2.882812 2.691406 -2.347656 2.921875 -1.984375 C 3.160156 -1.617188 3.539062 -1.4375 4.0625 -1.4375 C 4.582031 -1.4375 4.957031 -1.613281 5.1875 -1.96875 C 5.414062 -2.332031 5.53125 -2.875 5.53125 -3.59375 C 5.53125 -4.300781 5.414062 -4.832031 5.1875 -5.1875 C 4.957031 -5.539062 4.578125 -5.71875 4.046875 -5.71875 C 3.523438 -5.71875 3.148438 -5.539062 2.921875 -5.1875 C 2.691406 -4.832031 2.578125 -4.300781 2.578125 -3.59375 Z M 7.53125 -3.59375 C 7.53125 -2.425781 7.222656 -1.515625 6.609375 -0.859375 C 5.992188 -0.203125 5.140625 0.125 4.046875 0.125 C 3.359375 0.125 2.75 -0.0234375 2.21875 -0.328125 C 1.695312 -0.628906 1.296875 -1.0625 1.015625 -1.625 C 0.734375 -2.1875 0.59375 -2.84375 0.59375 -3.59375 C 0.59375 -4.757812 0.894531 -5.664062 1.5 -6.3125 C 2.113281 -6.96875 2.972656 -7.296875 4.078125 -7.296875 C 4.765625 -7.296875 5.367188 -7.144531 5.890625 -6.84375 C 6.421875 -6.539062 6.828125 -6.109375 7.109375 -5.546875 C 7.390625 -4.992188 7.53125 -4.34375 7.53125 -3.59375 Z M 7.53125 -3.59375 "/></g></g></g><g fill="#ffffff" fill-opacity="1"><g transform="translate(179.069861, 297.852529)"><g/></g></g><g fill="#ffffff" fill-opacity="1"><g transform="translate(182.474364, 297.852529)"><g><path d="M 3.15625 -4.953125 L 3.8125 -4.953125 C 4.425781 -4.953125 4.882812 -5.070312 5.1875 -5.3125 C 5.488281 -5.550781 5.640625 -5.90625 5.640625 -6.375 C 5.640625 -6.832031 5.507812 -7.171875 5.25 -7.390625 C 5 -7.617188 4.601562 -7.734375 4.0625 -7.734375 L 3.15625 -7.734375 Z M 7.640625 -6.4375 C 7.640625 -5.425781 7.320312 -4.65625 6.6875 -4.125 C 6.0625 -3.59375 5.171875 -3.328125 4.015625 -3.328125 L 3.15625 -3.328125 L 3.15625 0 L 1.171875 0 L 1.171875 -9.359375 L 4.171875 -9.359375 C 5.304688 -9.359375 6.164062 -9.113281 6.75 -8.625 C 7.34375 -8.132812 7.640625 -7.40625 7.640625 -6.4375 Z M 7.640625 -6.4375 "/></g></g></g><g fill="#ffffff" fill-opacity="1"><g transform="translate(190.704048, 297.852529)"><g><path d="M 5.5625 0 L 5.1875 -0.96875 L 5.140625 -0.96875 C 4.804688 -0.5625 4.46875 -0.273438 4.125 -0.109375 C 3.78125 0.046875 3.328125 0.125 2.765625 0.125 C 2.078125 0.125 1.535156 -0.0664062 1.140625 -0.453125 C 0.742188 -0.847656 0.546875 -1.410156 0.546875 -2.140625 C 0.546875 -2.898438 0.8125 -3.457031 1.34375 -3.8125 C 1.875 -4.175781 2.675781 -4.378906 3.75 -4.421875 L 5 -4.453125 L 5 -4.765625 C 5 -5.492188 4.625 -5.859375 3.875 -5.859375 C 3.300781 -5.859375 2.628906 -5.6875 1.859375 -5.34375 L 1.21875 -6.65625 C 2.039062 -7.082031 2.953125 -7.296875 3.953125 -7.296875 C 4.910156 -7.296875 5.644531 -7.085938 6.15625 -6.671875 C 6.675781 -6.253906 6.9375 -5.617188 6.9375 -4.765625 L 6.9375 0 Z M 5 -3.3125 L 4.234375 -3.296875 C 3.671875 -3.273438 3.25 -3.171875 2.96875 -2.984375 C 2.6875 -2.796875 2.546875 -2.507812 2.546875 -2.125 C 2.546875 -1.570312 2.863281 -1.296875 3.5 -1.296875 C 3.957031 -1.296875 4.320312 -1.425781 4.59375 -1.6875 C 4.863281 -1.945312 5 -2.296875 5 -2.734375 Z M 5 -3.3125 "/></g></g></g><g fill="#ffffff" fill-opacity="1"><g transform="translate(198.620163, 297.852529)"><g><path d="M 2.96875 0 L 1.03125 0 L 1.03125 -9.953125 L 2.96875 -9.953125 Z M 2.96875 0 "/></g></g></g><g fill="#ffffff" fill-opacity="1"><g transform="translate(202.619818, 297.852529)"><g><path d="M 7.4375 0 L 5.484375 0 L 5.484375 -4.1875 C 5.484375 -4.695312 5.394531 -5.082031 5.21875 -5.34375 C 5.039062 -5.601562 4.769531 -5.734375 4.40625 -5.734375 C 3.90625 -5.734375 3.539062 -5.546875 3.3125 -5.171875 C 3.082031 -4.804688 2.96875 -4.203125 2.96875 -3.359375 L 2.96875 0 L 1.03125 0 L 1.03125 -7.15625 L 2.515625 -7.15625 L 2.78125 -6.234375 L 2.890625 -6.234375 C 3.078125 -6.566406 3.351562 -6.828125 3.71875 -7.015625 C 4.082031 -7.203125 4.5 -7.296875 4.96875 -7.296875 C 6.039062 -7.296875 6.765625 -6.941406 7.140625 -6.234375 L 7.3125 -6.234375 C 7.507812 -6.566406 7.789062 -6.828125 8.15625 -7.015625 C 8.53125 -7.203125 8.953125 -7.296875 9.421875 -7.296875 C 10.234375 -7.296875 10.847656 -7.085938 11.265625 -6.671875 C 11.679688 -6.253906 11.890625 -5.585938 11.890625 -4.671875 L 11.890625 0 L 9.9375 0 L 9.9375 -4.1875 C 9.9375 -4.695312 9.847656 -5.082031 9.671875 -5.34375 C 9.503906 -5.601562 9.234375 -5.734375 8.859375 -5.734375 C 8.378906 -5.734375 8.019531 -5.5625 7.78125 -5.21875 C 7.550781 -4.875 7.4375 -4.332031 7.4375 -3.59375 Z M 7.4375 0 "/></g></g></g><g fill="#ffffff" fill-opacity="1"><g transform="translate(215.489102, 297.852529)"><g><path d="M 3.984375 -5.90625 C 3.566406 -5.90625 3.238281 -5.769531 3 -5.5 C 2.769531 -5.238281 2.640625 -4.867188 2.609375 -4.390625 L 5.34375 -4.390625 C 5.34375 -4.867188 5.21875 -5.238281 4.96875 -5.5 C 4.726562 -5.769531 4.398438 -5.90625 3.984375 -5.90625 Z M 4.265625 0.125 C 3.109375 0.125 2.207031 -0.191406 1.5625 -0.828125 C 0.914062 -1.460938 0.59375 -2.363281 0.59375 -3.53125 C 0.59375 -4.726562 0.890625 -5.65625 1.484375 -6.3125 C 2.085938 -6.96875 2.914062 -7.296875 3.96875 -7.296875 C 4.976562 -7.296875 5.765625 -7.003906 6.328125 -6.421875 C 6.898438 -5.847656 7.1875 -5.054688 7.1875 -4.046875 L 7.1875 -3.09375 L 2.5625 -3.09375 C 2.582031 -2.539062 2.742188 -2.109375 3.046875 -1.796875 C 3.359375 -1.484375 3.796875 -1.328125 4.359375 -1.328125 C 4.785156 -1.328125 5.191406 -1.367188 5.578125 -1.453125 C 5.960938 -1.546875 6.363281 -1.691406 6.78125 -1.890625 L 6.78125 -0.375 C 6.4375 -0.207031 6.070312 -0.0820312 5.6875 0 C 5.300781 0.0820312 4.828125 0.125 4.265625 0.125 Z M 4.265625 0.125 "/></g></g></g><g fill="#ffffff" fill-opacity="1"><g transform="translate(223.232428, 297.852529)"><g><path d="M 0.9375 -9 C 0.9375 -9.632812 1.289062 -9.953125 2 -9.953125 C 2.707031 -9.953125 3.0625 -9.632812 3.0625 -9 C 3.0625 -8.695312 2.972656 -8.460938 2.796875 -8.296875 C 2.617188 -8.128906 2.351562 -8.046875 2 -8.046875 C 1.289062 -8.046875 0.9375 -8.363281 0.9375 -9 Z M 2.96875 0 L 1.03125 0 L 1.03125 -7.15625 L 2.96875 -7.15625 Z M 2.96875 0 "/></g></g></g><g fill="#ffffff" fill-opacity="1"><g transform="translate(227.232083, 297.852529)"><g><path d="M 5.015625 -7.296875 C 5.285156 -7.296875 5.503906 -7.273438 5.671875 -7.234375 L 5.53125 -5.40625 C 5.375 -5.445312 5.179688 -5.46875 4.953125 -5.46875 C 4.328125 -5.46875 3.835938 -5.304688 3.484375 -4.984375 C 3.140625 -4.660156 2.96875 -4.210938 2.96875 -3.640625 L 2.96875 0 L 1.03125 0 L 1.03125 -7.15625 L 2.5 -7.15625 L 2.796875 -5.953125 L 2.890625 -5.953125 C 3.109375 -6.359375 3.40625 -6.679688 3.78125 -6.921875 C 4.164062 -7.171875 4.578125 -7.296875 5.015625 -7.296875 Z M 5.015625 -7.296875 "/></g></g></g><g fill="#ffffff" fill-opacity="1"><g transform="translate(233.183565, 297.852529)"><g><path d="M 5.5625 0 L 5.1875 -0.96875 L 5.140625 -0.96875 C 4.804688 -0.5625 4.46875 -0.273438 4.125 -0.109375 C 3.78125 0.046875 3.328125 0.125 2.765625 0.125 C 2.078125 0.125 1.535156 -0.0664062 1.140625 -0.453125 C 0.742188 -0.847656 0.546875 -1.410156 0.546875 -2.140625 C 0.546875 -2.898438 0.8125 -3.457031 1.34375 -3.8125 C 1.875 -4.175781 2.675781 -4.378906 3.75 -4.421875 L 5 -4.453125 L 5 -4.765625 C 5 -5.492188 4.625 -5.859375 3.875 -5.859375 C 3.300781 -5.859375 2.628906 -5.6875 1.859375 -5.34375 L 1.21875 -6.65625 C 2.039062 -7.082031 2.953125 -7.296875 3.953125 -7.296875 C 4.910156 -7.296875 5.644531 -7.085938 6.15625 -6.671875 C 6.675781 -6.253906 6.9375 -5.617188 6.9375 -4.765625 L 6.9375 0 Z M 5 -3.3125 L 4.234375 -3.296875 C 3.671875 -3.273438 3.25 -3.171875 2.96875 -2.984375 C 2.6875 -2.796875 2.546875 -2.507812 2.546875 -2.125 C 2.546875 -1.570312 2.863281 -1.296875 3.5 -1.296875 C 3.957031 -1.296875 4.320312 -1.425781 4.59375 -1.6875 C 4.863281 -1.945312 5 -2.296875 5 -2.734375 Z M 5 -3.3125 "/></g></g></g></svg>
